<svg width="20" height="18" viewBox="0 0 20 18" fill="none" xmlns="http://www.w3.org/2000/svg">
<path fill-rule="evenodd" clip-rule="evenodd" d="M13.6011 0.398961C13.2691 0.0670151 12.7309 0.0670151 12.399 0.398961C12.067 0.730906 12.067 1.2691 12.399 1.60104L16.9479 6.15H6.00002C4.44851 6.15 2.96054 6.76634 1.86345 7.86343C0.766362 8.96051 0.150024 10.4485 0.150024 12C0.150024 13.5515 0.766362 15.0395 1.86345 16.1366C2.96054 17.2337 4.44851 17.85 6.00002 17.85H13C13.4695 17.85 13.85 17.4694 13.85 17C13.85 16.5306 13.4695 16.15 13 16.15H6.00002C4.89938 16.15 3.84381 15.7128 3.06553 14.9345C2.28726 14.1562 1.85002 13.1006 1.85002 12C1.85002 10.8994 2.28726 9.84378 3.06553 9.06551C3.84381 8.28723 4.89938 7.85 6.00002 7.85H16.9479L12.399 12.399C12.067 12.7309 12.067 13.2691 12.399 13.601C12.7309 13.933 13.2691 13.933 13.6011 13.601L19.6011 7.60104C19.933 7.2691 19.933 6.73091 19.6011 6.39896L13.6011 0.398961Z" fill="black"/>
</svg>
