<svg width="20" height="20" viewBox="0 0 20 20" fill="none" xmlns="http://www.w3.org/2000/svg">
<path fill-rule="evenodd" clip-rule="evenodd" d="M1.85002 10C1.85002 5.49888 5.4989 1.85 10 1.85C10.8909 1.85 11.7468 1.99264 12.5471 2.25568C12.9931 2.40226 13.4734 2.15956 13.62 1.71359C13.7666 1.26762 13.5239 0.78726 13.0779 0.640677C12.1085 0.322033 11.0735 0.150002 10 0.150002C4.56002 0.150002 0.150024 4.56 0.150024 10C0.150024 15.44 4.56002 19.85 10 19.85C15.44 19.85 19.85 15.44 19.85 10C19.85 9.53056 19.4695 9.15 19 9.15C18.5306 9.15 18.15 9.53056 18.15 10C18.15 14.5011 14.5011 18.15 10 18.15C5.4989 18.15 1.85002 14.5011 1.85002 10ZM17.6024 5.59974C17.9336 5.26707 17.9324 4.72888 17.5998 4.39766C17.2671 4.06643 16.7289 4.0676 16.3977 4.40027L10.0496 10.7759L7.62095 8.17805C7.30036 7.83512 6.76248 7.81701 6.41955 8.1376C6.07662 8.45819 6.05851 8.99607 6.3791 9.339L9.4094 12.5805C9.56696 12.749 9.78626 12.8463 10.0169 12.8499C10.2476 12.8535 10.4699 12.7632 10.6327 12.5997L17.6024 5.59974Z" fill="black"/>
</svg>
