<svg width="20" height="20" viewBox="0 0 20 20" fill="none" xmlns="http://www.w3.org/2000/svg">
<path fill-rule="evenodd" clip-rule="evenodd" d="M1.8499 8C1.8499 4.60345 4.60335 1.85 7.9999 1.85C11.3965 1.85 14.1499 4.60345 14.1499 8C14.1499 11.3966 11.3965 14.15 7.9999 14.15C4.60335 14.15 1.8499 11.3966 1.8499 8ZM7.9999 0.150002C3.66447 0.150002 0.149902 3.66457 0.149902 8C0.149902 12.3354 3.66447 15.85 7.9999 15.85C9.86142 15.85 11.5716 15.2021 12.9172 14.1194L18.3989 19.601C18.7308 19.933 19.269 19.933 19.6009 19.601C19.9329 19.2691 19.9329 18.7309 19.6009 18.399L14.1193 12.9173C15.202 11.5717 15.8499 9.86152 15.8499 8C15.8499 3.66457 12.3353 0.150002 7.9999 0.150002Z" fill="black"/>
</svg>
