<svg width="20" height="20" viewBox="0 0 20 20" fill="none" xmlns="http://www.w3.org/2000/svg">
<path fill-rule="evenodd" clip-rule="evenodd" d="M1.85002 9.99999C1.85002 7.99114 1.85029 6.45417 1.91141 5.26228C1.97333 4.05473 2.09509 3.30104 2.28923 2.81568C2.45864 2.39214 2.66921 2.20038 2.9956 2.07345C3.39632 1.91761 4.00387 1.84999 5.00002 1.84999C5.97383 1.84999 6.65326 1.91173 7.12813 2.01725C7.60149 2.12244 7.80451 2.25656 7.89898 2.35103C7.98323 2.43528 8.05462 2.56044 8.09909 2.82723C8.14761 3.11838 8.15002 3.47843 8.15002 3.99999C8.15002 4.46944 8.53058 4.84999 9.00002 4.84999C9.46947 4.84999 9.85003 4.46944 9.85003 3.99999L9.85003 3.95742V3.95741C9.8501 3.49111 9.85017 2.99303 9.77596 2.54775C9.69543 2.06455 9.51682 1.56471 9.10106 1.14895C8.69554 0.743424 8.14856 0.502545 7.49692 0.357735C6.84679 0.213262 6.02622 0.149994 5.00002 0.149994C3.99618 0.149994 3.10373 0.207374 2.37945 0.48904C1.58084 0.799609 1.04141 1.35785 0.710819 2.18431C0.404963 2.94895 0.276714 3.94526 0.21364 5.17521C0.150024 6.41571 0.150024 7.99583 0.150024 9.97552V9.97571V9.99999V10.0243V10.0245C0.150024 12.0042 0.150024 13.5843 0.21364 14.8248C0.276714 16.0547 0.404963 17.051 0.710819 17.8157C1.04141 18.6421 1.58084 19.2004 2.37945 19.5109C3.10373 19.7926 3.99618 19.85 5.00002 19.85C6.02622 19.85 6.84679 19.7867 7.49692 19.6423C8.14856 19.4974 8.69554 19.2566 9.10106 18.851C9.51682 18.4353 9.69543 17.9354 9.77596 17.4522C9.85017 17.007 9.8501 16.5089 9.85003 16.0426V16.0426L9.85003 16C9.85003 15.5306 9.46947 15.15 9.00002 15.15C8.53058 15.15 8.15002 15.5306 8.15002 16C8.15002 16.5216 8.14761 16.8816 8.09909 17.1728C8.05462 17.4395 7.98323 17.5647 7.89898 17.649C7.80451 17.7434 7.60149 17.8775 7.12813 17.9827C6.65326 18.0883 5.97383 18.15 5.00002 18.15C4.00387 18.15 3.39632 18.0824 2.9956 17.9265C2.66921 17.7996 2.45864 17.6078 2.28923 17.1843C2.09509 16.699 1.97333 15.9453 1.91141 14.7377C1.85029 13.5458 1.85002 12.0088 1.85002 9.99999ZM15.6011 5.39895C15.2691 5.06701 14.7309 5.06701 14.399 5.39895C14.067 5.7309 14.067 6.26909 14.399 6.60103L16.9479 9.14999H9.00002C8.53058 9.14999 8.15002 9.53055 8.15002 9.99999C8.15002 10.4694 8.53058 10.85 9.00002 10.85H16.9479L14.399 13.399C14.067 13.7309 14.067 14.2691 14.399 14.601C14.7309 14.933 15.2691 14.933 15.6011 14.601L19.6011 10.601C19.933 10.2691 19.933 9.7309 19.6011 9.39895L15.6011 5.39895Z" fill="black"/>
</svg>
