<svg width="14" height="14" viewBox="0 0 14 14" fill="none" xmlns="http://www.w3.org/2000/svg">
<path d="M10.0001 13.2423C10.1811 13.0614 10.2919 12.8099 10.2916 12.5338V12.4123C10.2916 11.8593 9.84391 11.4117 9.29166 11.4124H3.82815L13.0703 2.17026C13.4606 1.77994 13.4606 1.14637 13.0703 0.756051C12.6799 0.365728 12.0464 0.365728 11.656 0.756051L2.41394 9.99816V4.53465C2.41394 3.9817 1.9663 3.53405 1.41405 3.53476H1.29251C0.739555 3.53476 0.291913 3.9824 0.29262 4.53465V12.5338C0.292619 13.0868 0.740262 13.5344 1.29251 13.5337H9.29166C9.56814 13.5337 9.81922 13.4232 10.0001 13.2423Z" fill="black"/>
</svg>
