<svg width="18" height="20" viewBox="0 0 18 20" fill="none" xmlns="http://www.w3.org/2000/svg">
<path fill-rule="evenodd" clip-rule="evenodd" d="M5.35002 5.5C5.35002 3.85166 6.8873 2.35 9.00002 2.35C11.1127 2.35 12.65 3.85165 12.65 5.5C12.65 7.14834 11.1127 8.65 9.00002 8.65C6.8873 8.65 5.35002 7.14834 5.35002 5.5ZM9.00002 0.65C6.14219 0.65 3.65002 2.73007 3.65002 5.5C3.65002 8.26993 6.14219 10.35 9.00002 10.35C11.8579 10.35 14.35 8.26993 14.35 5.5C14.35 2.73007 11.8579 0.65 9.00002 0.65ZM2.35002 16C2.35002 15.4299 2.83865 14.7628 4.17554 14.196C5.44982 13.6558 7.20546 13.35 9.00002 13.35C10.7753 13.35 12.5298 13.7073 13.8111 14.2767C14.4527 14.5619 14.9355 14.8825 15.246 15.2019C15.5529 15.5175 15.65 15.7849 15.65 16C15.65 16.0494 15.6331 16.1781 15.3876 16.3821C15.1345 16.5924 14.7113 16.8153 14.0952 17.0149C12.8704 17.4116 11.0919 17.65 9.00002 17.65C6.90812 17.65 5.12967 17.4116 3.90482 17.0149C3.28876 16.8153 2.86552 16.5924 2.61248 16.3821C2.36694 16.1781 2.35002 16.0494 2.35002 16ZM9.00002 11.65C7.04459 11.65 5.05023 11.9788 3.51201 12.6309C2.0364 13.2564 0.650024 14.3393 0.650024 16C0.650024 16.7153 1.03489 17.2815 1.52596 17.6896C2.00952 18.0914 2.65772 18.3979 3.38095 18.6322C4.83467 19.1031 6.80621 19.35 9.00002 19.35C11.1938 19.35 13.1654 19.1031 14.6191 18.6322C15.3423 18.3979 15.9905 18.0914 16.4741 17.6896C16.9652 17.2815 17.35 16.7153 17.35 16C17.35 15.2151 16.9784 14.545 16.4649 14.0169C15.9551 13.4925 15.2661 13.0631 14.5015 12.7233C12.9703 12.0427 10.9747 11.65 9.00002 11.65Z" fill="black"/>
</svg>
