<svg width="14" height="14" viewBox="0 0 14 14" fill="none" xmlns="http://www.w3.org/2000/svg">
<path d="M3.65647 0.756051C3.47554 0.936982 3.36471 1.18841 3.36507 1.46454V1.58607C3.36507 2.13903 3.81271 2.58667 4.36496 2.58597H9.82846L0.586356 11.8281C0.196033 12.2184 0.196033 12.852 0.586356 13.2423C0.976679 13.6326 1.61025 13.6326 2.00057 13.2423L11.2427 4.00018V9.46368C11.2427 10.0166 11.6903 10.4643 12.2426 10.4636H12.3641C12.9171 10.4636 13.3647 10.0159 13.364 9.46368V1.46454C13.364 0.911581 12.9164 0.463938 12.3641 0.464646H4.36496C4.08848 0.464646 3.8374 0.57512 3.65647 0.756051Z" fill="black"/>
</svg>
