<svg width="20" height="20" viewBox="0 0 20 20" fill="none" xmlns="http://www.w3.org/2000/svg">
<path fill-rule="evenodd" clip-rule="evenodd" d="M15.85 3.05208V17C15.85 17.4694 15.4695 17.85 15 17.85C14.5306 17.85 14.15 17.4694 14.15 17V3.05208L11.6011 5.60104C11.2691 5.93298 10.7309 5.93298 10.399 5.60104C10.067 5.26909 10.067 4.7309 10.399 4.39895L14.399 0.398954C14.7309 0.0670071 15.2691 0.0670071 15.6011 0.398954L19.6011 4.39895C19.933 4.7309 19.933 5.26909 19.6011 5.60104C19.2691 5.93298 18.7309 5.93298 18.399 5.60104L15.85 3.05208ZM5.85002 2.99999C5.85002 2.53055 5.46947 2.14999 5.00002 2.14999C4.53058 2.14999 4.15002 2.53055 4.15002 2.99999V16.9479L1.60107 14.399C1.26912 14.067 0.730929 14.067 0.398984 14.399C0.067038 14.7309 0.067038 15.2691 0.398984 15.601L4.39898 19.601C4.73093 19.933 5.26912 19.933 5.60107 19.601L9.60107 15.601C9.93301 15.2691 9.93301 14.7309 9.60107 14.399C9.26912 14.067 8.73093 14.067 8.39898 14.399L5.85002 16.9479V2.99999Z" fill="black"/>
</svg>
