<svg width="19" height="18" viewBox="0 0 19 18" fill="none" xmlns="http://www.w3.org/2000/svg">
<path fill-rule="evenodd" clip-rule="evenodd" d="M3.85002 5C3.85002 3.2603 5.26033 1.85 7.00002 1.85C8.73972 1.85 10.15 3.2603 10.15 5C10.15 6.7397 8.73972 8.15 7.00002 8.15C5.26033 8.15 3.85002 6.7397 3.85002 5ZM7.00002 0.150002C4.32144 0.150002 2.15002 2.32142 2.15002 5C2.15002 7.67858 4.32144 9.85 7.00002 9.85C9.67861 9.85 11.85 7.67858 11.85 5C11.85 2.32142 9.67861 0.150002 7.00002 0.150002ZM1.85002 14.9167C1.85002 14.5137 2.17867 13.9979 3.21839 13.5388C4.20792 13.1018 5.58426 12.85 7.00002 12.85C8.39573 12.85 9.77092 13.1431 10.7679 13.6047C11.2669 13.8357 11.6328 14.0912 11.863 14.3378C12.0846 14.5753 12.1477 14.7656 12.15 14.9085C12.1419 14.93 12.1051 14.9981 11.9627 15.1088C11.7443 15.2786 11.3797 15.4616 10.865 15.627C9.84459 15.9549 8.43632 16.15 7.00002 16.15C5.30152 16.15 3.90338 15.9521 2.96133 15.6316C2.48766 15.4704 2.18108 15.2955 2.00771 15.1425C1.84896 15.0024 1.84988 14.9286 1.85002 14.9174L1.85002 14.9167ZM12.1519 14.901C12.1521 14.9011 12.1519 14.903 12.1506 14.9068C12.1511 14.9029 12.1517 14.901 12.1519 14.901ZM7.00002 11.15C5.41579 11.15 3.79212 11.427 2.53166 11.9837C1.32137 12.5181 0.150024 13.4607 0.150024 14.9167C0.150024 15.5456 0.467576 16.0507 0.882959 16.4172C1.28772 16.7744 1.82489 17.0406 2.41372 17.241C3.59666 17.6435 5.19852 17.85 7.00002 17.85C8.56372 17.85 10.1555 17.6407 11.3851 17.2455C11.9953 17.0494 12.5683 16.7913 13.0061 16.451C13.4404 16.1134 13.85 15.6034 13.85 14.9167C13.85 14.2271 13.5361 13.6389 13.1058 13.1778C12.6797 12.7213 12.1082 12.3518 11.4821 12.062C10.2291 11.4819 8.60432 11.15 7.00002 11.15ZM13.1539 8.91847C13.199 8.45119 13.6143 8.10889 14.0816 8.15392C15.2957 8.27092 16.4222 8.58654 17.2734 9.07878C18.0978 9.55549 18.85 10.32 18.85 11.3733C18.85 11.9192 18.6411 12.417 18.2349 12.8126C17.852 13.1855 17.3292 13.4349 16.7319 13.6043C16.2802 13.7323 15.8103 13.47 15.6823 13.0183C15.5542 12.5667 15.8165 12.0968 16.2682 11.9687C16.7158 11.8418 16.943 11.6978 17.0488 11.5947C17.1314 11.5143 17.15 11.4536 17.15 11.3733C17.15 11.2166 17.0328 10.9034 16.4224 10.5504C15.8389 10.213 14.9654 9.94696 13.9185 9.84608C13.4512 9.80105 13.1089 9.38575 13.1539 8.91847ZM15 0.150002C14.5306 0.150002 14.15 0.530559 14.15 1C14.15 1.46944 14.5306 1.85 15 1.85C15.9113 1.85 16.65 2.58873 16.65 3.5C16.65 4.41127 15.9113 5.15 15 5.15C14.5306 5.15 14.15 5.53056 14.15 6C14.15 6.46944 14.5306 6.85 15 6.85C16.8502 6.85 18.35 5.35016 18.35 3.5C18.35 1.64985 16.8502 0.150002 15 0.150002Z" fill="black"/>
</svg>
